<svg width="15" height="15" viewBox="0 0 15 15" fill="none" xmlns="http://www.w3.org/2000/svg">
<g clip-path="url(#clip0_207_924)">
<path d="M7.49999 3.75C4.39874 3.75 1.87499 6.27313 1.87499 9.375C1.87499 12.4769 4.39874 15 7.49999 15C10.6012 15 13.125 12.4769 13.125 9.375C13.125 6.27313 10.6012 3.75 7.49999 3.75ZM8.12499 12.5H6.87499V8.36625L6.38749 8.87187L5.48811 8.00375L7.18061 6.25H8.12561V12.5H8.12499ZM8.12374 2.52875L9.37499 0H14.2919L12.1544 4.32C11.0725 3.32313 9.67124 2.66875 8.12374 2.52875ZM2.79624 4.36562L0.642487 0H5.62499L6.87249 2.52875C5.30249 2.67125 3.88374 3.34375 2.79624 4.36562Z" fill="#F2CC75"/>
</g>
<defs>
<clipPath id="clip0_207_924">
<rect width="15" height="15" fill="white"/>
</clipPath>
</defs>
</svg>
