<svg width="15" height="15" viewBox="0 0 15 15" fill="none" xmlns="http://www.w3.org/2000/svg">
<path d="M11.3164 4.99621C10.5105 4.1837 9.81521 3.48228 9.81521 1.59076C9.81521 1.42294 9.74516 1.26339 9.62358 1.15112C9.50142 1.03944 9.33816 0.986846 9.17547 1.0028C7.79469 1.1523 5.18363 2.20886 5.18363 5.13626C5.18363 5.25385 5.18826 5.39626 5.19405 5.55522C5.2149 6.16977 5.25426 7.31378 4.90168 7.68606C4.85074 7.73983 4.77547 7.79538 4.60526 7.79538C4.4999 7.79538 4.431 7.76465 4.36095 7.68488C4.01995 7.30137 3.95858 6.17213 4.02342 5.49317C4.0379 5.34131 3.99447 5.19594 3.91053 5.0813C3.87463 5.03226 3.83063 4.98794 3.77911 4.9513C3.57532 4.80594 3.30611 4.81007 3.10753 4.95603C3.023 5.01867 2.95353 5.10494 2.91068 5.20953L2.80705 5.46422C2.44695 6.33995 1.99942 7.43079 2 8.3863C2.00174 11.9011 4.05758 14 7.5 14C11.0466 14 13 12.1114 13 8.68176C13 6.69214 12.1055 5.79099 11.3164 4.99621ZM7.49942 12.8182C4.70079 12.8182 3.15847 11.244 3.15732 8.3863C3.15732 8.26398 3.16947 8.13279 3.1909 7.99629C3.58863 8.84485 4.23821 8.97721 4.60468 8.97721C5.05221 8.97721 5.443 8.81471 5.73421 8.50684C6.42779 7.77411 6.38205 6.41382 6.35079 5.51444C6.34616 5.37085 6.34153 5.24262 6.34153 5.13626C6.34153 3.26483 7.82247 2.56046 8.68974 2.30872C8.86574 4.18666 9.73068 5.05826 10.503 5.83708C11.251 6.5905 11.8415 7.18615 11.8415 8.68176C11.8415 11.465 10.4214 12.8182 7.49942 12.8182Z" fill="white"/>
</svg>
