<svg width="20" height="20" viewBox="0 0 20 20" fill="none" xmlns="http://www.w3.org/2000/svg">
<path d="M8.04035 10.6057C8.40746 11.097 8.87582 11.5035 9.41367 11.7976C9.95152 12.0918 10.5463 12.2667 11.1576 12.3105C11.7689 12.3543 12.3825 12.266 12.9567 12.0516C13.531 11.8372 14.0524 11.5016 14.4857 11.0678L17.0502 8.5007C17.8288 7.69378 18.2596 6.61304 18.2498 5.49125C18.2401 4.36946 17.7906 3.29638 16.9981 2.50312C16.2057 1.70987 15.1337 1.25991 14.013 1.25016C12.8924 1.24041 11.8127 1.67166 11.0066 2.451L9.53629 3.91423M11.4597 8.89431C11.0925 8.40304 10.6242 7.99654 10.0863 7.7024C9.54848 7.40825 8.95373 7.23333 8.3424 7.1895C7.73108 7.14568 7.11749 7.23397 6.54326 7.44839C5.96902 7.66282 5.44757 7.99835 5.01427 8.43224L2.4498 10.9993C1.67123 11.8062 1.24042 12.887 1.25016 14.0088C1.2599 15.1305 1.7094 16.2036 2.50186 16.9969C3.29432 17.7901 4.36632 18.2401 5.48698 18.2498C6.60765 18.2596 7.6873 17.8283 8.49341 17.049L9.95516 15.5858" stroke="white" stroke-width="2.5" stroke-linecap="round" stroke-linejoin="round"/>
</svg>
