<svg width="139" height="44" viewBox="0 0 139 44" fill="none" xmlns="http://www.w3.org/2000/svg">
<path d="M9.91699 8.5C8.67184 8.5 7.43906 8.74707 6.29297 9.22656C5.14683 9.70611 4.1102 10.4086 3.24512 11.291V11.29C1.48311 13.0908 0.5 15.4959 0.5 17.9971C0.500023 20.4948 1.48079 22.8963 3.23828 24.6963L7.57324 28.9375L7.57617 28.9404C7.88111 29.244 8.24396 29.4856 8.64453 29.6504C9.04505 29.8151 9.47492 29.9004 9.90918 29.9004C10.3435 29.9004 10.7742 29.8152 11.1748 29.6504C11.5752 29.4856 11.9383 29.2439 12.2432 28.9404L12.2471 28.9365L16.5742 24.7227C18.3416 22.9224 19.33 20.5153 19.333 18.0107C19.336 15.5052 18.3522 13.0956 16.5879 11.291C15.7228 10.4086 14.6862 9.70611 13.54 9.22656C12.3941 8.74714 11.162 8.50006 9.91699 8.5ZM7.55762 12.1631C8.6842 11.7025 9.92361 11.5826 11.1191 11.8174C12.3148 12.0522 13.414 12.6321 14.2773 13.4844C15.1407 14.3367 15.7292 15.4234 15.9678 16.6074C16.2064 17.7916 16.084 19.0188 15.6162 20.1338C15.1484 21.2488 14.3564 22.2008 13.3418 22.8701C12.3274 23.5392 11.1357 23.8964 9.91699 23.8965C8.28258 23.8965 6.7133 23.2552 5.55566 22.1123C4.39789 20.9692 3.74609 19.4172 3.74609 17.7979C3.74617 16.5905 4.10937 15.411 4.78809 14.4082C5.46685 13.4053 6.43088 12.6238 7.55762 12.1631ZM9.91699 15.499C9.29562 15.499 8.70014 15.7429 8.2627 16.1748C7.82566 16.6064 7.58116 17.1904 7.58105 17.7979C7.58105 18.2511 7.71786 18.6953 7.97363 19.0732C8.22943 19.4511 8.59324 19.7471 9.02051 19.9219C9.44792 20.0967 9.91889 20.1419 10.373 20.0527C10.8272 19.9635 11.2441 19.7439 11.5703 19.4219C11.8964 19.0999 12.1174 18.6898 12.207 18.2451C12.2965 17.8007 12.2509 17.34 12.0752 16.9209C11.8993 16.5017 11.6007 16.142 11.2168 15.8887C10.8327 15.6353 10.3801 15.4991 9.91699 15.499Z" fill="#BEC94A" stroke="#BEC94A"/>
<path d="M14.9457 29.7432C19.4655 29.7432 20.7187 32.43 14.2391 32.43C1.1454 32.43 -1.27744 34.2303 8.75819 36.0001" stroke="#BEC94A" stroke-linecap="round"/>
<path d="M24.1398 34V16.5455H28.9807V34H24.1398ZM26.5716 14.2955C25.8519 14.2955 25.2345 14.0568 24.7194 13.5795C24.2118 13.0947 23.958 12.5152 23.958 11.8409C23.958 11.1742 24.2118 10.6023 24.7194 10.125C25.2345 9.64015 25.8519 9.39773 26.5716 9.39773C27.2913 9.39773 27.905 9.64015 28.4126 10.125C28.9277 10.6023 29.1853 11.1742 29.1853 11.8409C29.1853 12.5152 28.9277 13.0947 28.4126 13.5795C27.905 14.0568 27.2913 14.2955 26.5716 14.2955ZM37.6995 23.9091V34H32.8586V16.5455H37.4722V19.625H37.6768C38.0631 18.6098 38.7108 17.8068 39.6199 17.2159C40.529 16.6174 41.6313 16.3182 42.9268 16.3182C44.1389 16.3182 45.1957 16.5833 46.0972 17.1136C46.9987 17.6439 47.6995 18.4015 48.1995 19.3864C48.6995 20.3636 48.9495 21.5303 48.9495 22.8864V34H44.1086V23.75C44.1162 22.6818 43.8434 21.8485 43.2904 21.25C42.7374 20.6439 41.976 20.3409 41.0063 20.3409C40.3548 20.3409 39.779 20.4811 39.279 20.7614C38.7866 21.0417 38.4002 21.4508 38.1199 21.9886C37.8472 22.5189 37.7071 23.1591 37.6995 23.9091ZM57.6057 10.7273V34H52.7648V10.7273H57.6057ZM69.3699 34.3409C67.6048 34.3409 66.0783 33.9659 64.7904 33.2159C63.5101 32.4583 62.5215 31.4053 61.8245 30.0568C61.1275 28.7008 60.779 27.1288 60.779 25.3409C60.779 23.5379 61.1275 21.9621 61.8245 20.6136C62.5215 19.2576 63.5101 18.2045 64.7904 17.4545C66.0783 16.697 67.6048 16.3182 69.3699 16.3182C71.1351 16.3182 72.6578 16.697 73.9381 17.4545C75.226 18.2045 76.2184 19.2576 76.9154 20.6136C77.6124 21.9621 77.9608 23.5379 77.9608 25.3409C77.9608 27.1288 77.6124 28.7008 76.9154 30.0568C76.2184 31.4053 75.226 32.4583 73.9381 33.2159C72.6578 33.9659 71.1351 34.3409 69.3699 34.3409ZM69.3927 30.5909C70.1957 30.5909 70.8662 30.3636 71.404 29.9091C71.9419 29.447 72.3472 28.8182 72.6199 28.0227C72.9002 27.2273 73.0404 26.322 73.0404 25.3068C73.0404 24.2917 72.9002 23.3864 72.6199 22.5909C72.3472 21.7955 71.9419 21.1667 71.404 20.7045C70.8662 20.2424 70.1957 20.0114 69.3927 20.0114C68.5821 20.0114 67.9002 20.2424 67.3472 20.7045C66.8018 21.1667 66.3889 21.7955 66.1086 22.5909C65.8358 23.3864 65.6995 24.2917 65.6995 25.3068C65.6995 26.322 65.8358 27.2273 66.1086 28.0227C66.3889 28.8182 66.8018 29.447 67.3472 29.9091C67.9002 30.3636 68.5821 30.5909 69.3927 30.5909ZM88.9722 40.9091C87.404 40.9091 86.0593 40.6932 84.9381 40.2614C83.8245 39.8371 82.9381 39.2576 82.279 38.5227C81.6199 37.7879 81.1919 36.9621 80.9949 36.0455L85.4722 35.4432C85.6086 35.7917 85.8245 36.1174 86.1199 36.4205C86.4154 36.7235 86.8055 36.9659 87.2904 37.1477C87.7828 37.3371 88.3813 37.4318 89.0858 37.4318C90.1389 37.4318 91.0063 37.1742 91.6881 36.6591C92.3775 36.1515 92.7222 35.2992 92.7222 34.1023V30.9091H92.5177C92.3055 31.3939 91.9874 31.8523 91.5631 32.2841C91.1389 32.7159 90.5934 33.0682 89.9268 33.3409C89.2601 33.6136 88.4646 33.75 87.5404 33.75C86.2298 33.75 85.0366 33.447 83.9608 32.8409C82.8927 32.2273 82.0404 31.2917 81.404 30.0341C80.7752 28.7689 80.4608 27.1705 80.4608 25.2386C80.4608 23.2614 80.7828 21.6098 81.4268 20.2841C82.0707 18.9583 82.9268 17.9659 83.9949 17.3068C85.0707 16.6477 86.2487 16.3182 87.529 16.3182C88.5063 16.3182 89.3245 16.4848 89.9836 16.8182C90.6427 17.1439 91.173 17.553 91.5745 18.0455C91.9836 18.5303 92.298 19.0076 92.5177 19.4773H92.6995V16.5455H97.5063V34.1705C97.5063 35.6553 97.1427 36.8977 96.4154 37.8977C95.6881 38.8977 94.6805 39.6477 93.3927 40.1477C92.1124 40.6553 90.6389 40.9091 88.9722 40.9091ZM89.0745 30.1136C89.8548 30.1136 90.5139 29.9205 91.0518 29.5341C91.5972 29.1402 92.0139 28.5795 92.3018 27.8523C92.5972 27.1174 92.7449 26.2386 92.7449 25.2159C92.7449 24.1932 92.601 23.3068 92.3131 22.5568C92.0252 21.7992 91.6086 21.2121 91.0631 20.7955C90.5177 20.3788 89.8548 20.1705 89.0745 20.1705C88.279 20.1705 87.6086 20.3864 87.0631 20.8182C86.5177 21.2424 86.1048 21.8333 85.8245 22.5909C85.5442 23.3485 85.404 24.2235 85.404 25.2159C85.404 26.2235 85.5442 27.0947 85.8245 27.8295C86.1124 28.5568 86.5252 29.1212 87.0631 29.5227C87.6086 29.9167 88.279 30.1136 89.0745 30.1136ZM112.552 26.5682V16.5455H117.393V34H112.745V30.8295H112.563C112.169 31.8523 111.514 32.6742 110.597 33.2955C109.688 33.9167 108.578 34.2273 107.268 34.2273C106.101 34.2273 105.074 33.9621 104.188 33.4318C103.302 32.9015 102.609 32.1477 102.109 31.1705C101.616 30.1932 101.366 29.0227 101.359 27.6591V16.5455H106.199V26.7955C106.207 27.8258 106.484 28.6402 107.029 29.2386C107.574 29.8371 108.306 30.1364 109.222 30.1364C109.806 30.1364 110.351 30.0038 110.859 29.7386C111.366 29.4659 111.775 29.0644 112.086 28.5341C112.404 28.0038 112.559 27.3485 112.552 26.5682ZM129.219 34.3409C127.424 34.3409 125.878 33.9773 124.583 33.25C123.295 32.5152 122.303 31.4773 121.606 30.1364C120.909 28.7879 120.56 27.1932 120.56 25.3523C120.56 23.5568 120.909 21.9811 121.606 20.625C122.303 19.2689 123.284 18.2121 124.549 17.4545C125.822 16.697 127.314 16.3182 129.026 16.3182C130.178 16.3182 131.25 16.5038 132.242 16.875C133.242 17.2386 134.113 17.7879 134.856 18.5227C135.606 19.2576 136.189 20.1818 136.606 21.2955C137.022 22.4015 137.231 23.697 137.231 25.1818V26.5114H122.492V23.5114H132.674C132.674 22.8144 132.522 22.197 132.219 21.6591C131.916 21.1212 131.496 20.7008 130.958 20.3977C130.428 20.0871 129.81 19.9318 129.106 19.9318C128.371 19.9318 127.719 20.1023 127.151 20.4432C126.591 20.7765 126.151 21.2273 125.833 21.7955C125.515 22.3561 125.352 22.9811 125.344 23.6705V26.5227C125.344 27.3864 125.503 28.1326 125.822 28.7614C126.147 29.3902 126.606 29.875 127.197 30.2159C127.788 30.5568 128.488 30.7273 129.299 30.7273C129.837 30.7273 130.329 30.6515 130.776 30.5C131.223 30.3485 131.606 30.1212 131.924 29.8182C132.242 29.5152 132.485 29.1439 132.651 28.7045L137.128 29C136.901 30.0758 136.435 31.0152 135.731 31.8182C135.034 32.6136 134.132 33.2348 133.026 33.6818C131.928 34.1212 130.659 34.3409 129.219 34.3409Z" fill="#BEC94A"/>
</svg>
