<svg width="10" height="10" viewBox="0 0 10 10" fill="none" xmlns="http://www.w3.org/2000/svg">
<path d="M5.01788 8.99998C4.73722 9.00141 4.4603 8.93559 4.21031 8.80801C3.96031 8.68043 3.74452 8.49482 3.58101 8.26671C2.31078 6.51452 1.6665 5.1973 1.6665 4.35138C1.6665 3.46254 2.01959 2.6101 2.6481 1.9816C3.27661 1.35309 4.12904 1 5.01788 1C5.90672 1 6.75916 1.35309 7.38766 1.9816C8.01617 2.6101 8.36926 3.46254 8.36926 4.35138C8.36926 5.1973 7.72498 6.51452 6.45476 8.26671C6.29124 8.49482 6.07545 8.68043 5.82546 8.80801C5.57546 8.93559 5.29854 9.00141 5.01788 8.99998ZM5.01788 1.7276C4.32208 1.7284 3.655 2.00516 3.163 2.49716C2.67099 2.98917 2.39424 3.65624 2.39344 4.35204C2.39344 5.02199 3.02439 6.26088 4.16962 7.84041C4.26684 7.97432 4.39439 8.08332 4.54183 8.15847C4.68926 8.23363 4.8524 8.27281 5.01788 8.27281C5.18337 8.27281 5.3465 8.23363 5.49394 8.15847C5.64137 8.08332 5.76892 7.97432 5.86614 7.84041C7.01138 6.26088 7.64232 5.02199 7.64232 4.35204C7.64153 3.65624 7.36477 2.98917 6.87277 2.49716C6.38076 2.00516 5.71368 1.7284 5.01788 1.7276Z" fill="white"/>
<path d="M5.01775 3.33398C4.79802 3.33398 4.58321 3.39914 4.40051 3.52122C4.2178 3.6433 4.0754 3.81682 3.99131 4.01983C3.90722 4.22284 3.88522 4.44623 3.92809 4.66175C3.97096 4.87726 4.07677 5.07523 4.23215 5.23061C4.38753 5.38598 4.58549 5.4918 4.80101 5.53467C5.01652 5.57754 5.23991 5.55553 5.44292 5.47144C5.64593 5.38735 5.81945 5.24495 5.94153 5.06225C6.06361 4.87954 6.12877 4.66474 6.12877 4.445C6.12877 4.15034 6.01172 3.86775 5.80336 3.65939C5.59501 3.45104 5.31241 3.33398 5.01775 3.33398ZM5.01775 5.00051C4.90789 5.00051 4.80048 4.96793 4.70913 4.90689C4.61778 4.84585 4.54658 4.75909 4.50453 4.65758C4.46249 4.55608 4.45149 4.44438 4.47292 4.33663C4.49435 4.22887 4.54726 4.12989 4.62495 4.0522C4.70264 3.97451 4.80162 3.9216 4.90938 3.90017C5.01714 3.87873 5.12883 3.88973 5.23034 3.93178C5.33184 3.97382 5.4186 4.04502 5.47964 4.13638C5.54068 4.22773 5.57326 4.33513 5.57326 4.445C5.57326 4.59233 5.51474 4.73362 5.41056 4.8378C5.30638 4.94198 5.16508 5.00051 5.01775 5.00051Z" fill="white"/>
</svg>
