<svg width="31" height="31" viewBox="0 0 31 31" fill="none" xmlns="http://www.w3.org/2000/svg">
<path d="M19.418 7.62285C18.3722 6.57631 16.9804 6 15.5 6C14.0196 6 12.6278 6.57631 11.5813 7.62285C9.4208 9.78322 9.4208 13.2989 11.5876 15.4656L13.5628 17.3972C14.0972 17.9196 14.7986 18.1809 15.5 18.1809C16.2014 18.1809 16.9028 17.9196 17.4372 17.3972L19.418 15.4592C20.4645 14.4127 21.0417 13.021 21.0417 11.5406C21.0417 10.0603 20.4645 8.67018 19.418 7.62285ZM15.5 13.9084C14.1882 13.9084 13.125 12.8453 13.125 11.5335C13.125 10.2218 14.1882 9.15862 15.5 9.15862C16.8118 9.15862 17.875 10.2218 17.875 11.5335C17.875 12.8453 16.8118 13.9084 15.5 13.9084ZM25 19.2694C25.0016 19.5496 24.8551 19.8093 24.616 19.9525L16.8094 24.6366C16.4057 24.8789 15.9528 25 15.5008 25C15.0488 25 14.5951 24.8789 14.1922 24.6366L6.38397 19.9525C6.1441 19.8085 5.99843 19.5488 6.00001 19.2694C6.0016 18.9899 6.15043 18.7318 6.39189 18.5909L10.2354 16.3411C10.3146 16.4282 10.3961 16.5145 10.48 16.5984L12.4553 18.5292C13.2691 19.3256 14.3513 19.7649 15.5 19.7649C16.6487 19.7649 17.7301 19.3256 18.5447 18.5292L20.5382 16.5794C20.6157 16.5018 20.6917 16.4219 20.7654 16.3411L24.6081 18.5901C24.8496 18.7318 24.9984 18.9907 25 19.2694Z" fill="currentColor"/>
</svg>
