<svg width="12" height="12" viewBox="0 0 12 12" fill="none" xmlns="http://www.w3.org/2000/svg">
<path d="M7.75299 5.43048C7.91299 5.58682 8.12299 5.66515 8.33299 5.66515C8.54299 5.66515 8.753 5.58682 8.913 5.43048L9.51133 4.84512C10.1613 4.19509 10.1613 3.13771 9.51133 2.48802C9.19666 2.17334 8.778 2 8.33299 2C7.88799 2 7.46932 2.17334 7.15432 2.48802C6.50465 3.13805 6.50465 4.19542 7.15699 4.84778L7.75299 5.43048ZM7.62599 2.95937C7.81499 2.77037 8.06599 2.66636 8.33333 2.66636C8.60066 2.66636 8.85166 2.77037 9.04033 2.95904C9.43033 3.34906 9.43033 3.98342 9.043 4.37077L8.44699 4.95346C8.38333 5.01613 8.28299 5.01613 8.21933 4.95346L7.62599 4.37343C7.23632 3.98342 7.23632 3.34939 7.62599 2.95937ZM10 7.66657C10 8.40193 9.402 8.99996 8.66666 8.99996H6.33332C6.14932 8.99996 5.99999 8.85062 5.99999 8.66661C5.99999 8.4826 6.14932 8.33326 6.33332 8.33326H8.66666C9.03433 8.33326 9.33333 8.03425 9.33333 7.66657C9.33333 7.29889 9.03433 6.99987 8.66666 6.99987H4.99998C4.26465 6.99987 3.66664 6.40185 3.66664 5.66649C3.66664 4.93112 4.26465 4.3331 4.99998 4.3331H5.99999C6.18399 4.3331 6.33332 4.48244 6.33332 4.66644C6.33332 4.85045 6.18399 4.99979 5.99999 4.99979H4.99998C4.63231 4.99979 4.33331 5.2988 4.33331 5.66649C4.33331 6.03417 4.63231 6.33318 4.99998 6.33318H8.66666C9.402 6.33318 10 6.93121 10 7.66657ZM5.33332 8.66661C5.33332 8.85062 5.18398 8.99996 4.99998 8.99996H4.49998L3.86298 9.80699C3.79798 9.926 3.67331 10 3.53798 10H3.43131C3.30398 10 3.21664 9.87199 3.26264 9.75332L3.55564 8.99996H2.78231C2.63497 8.99996 2.49497 8.93496 2.39997 8.82228L2.03464 8.38893C1.93564 8.21559 2.06064 7.99992 2.2603 7.99992C2.32931 7.99992 2.39531 8.02725 2.44397 8.07592L2.81397 8.33326H3.56098L3.26398 7.58057C3.21697 7.46189 3.30464 7.33322 3.43231 7.33322H3.53164C3.66731 7.33322 3.79198 7.40723 3.85664 7.52623L4.49965 8.33326H4.99965C5.18365 8.33326 5.33298 8.4826 5.33298 8.66661H5.33332ZM8.667 3.5954C8.667 3.77941 8.51766 3.92875 8.33366 3.92875C8.14966 3.92875 8.00033 3.77941 8.00033 3.5954C8.00033 3.41139 8.14966 3.26205 8.33366 3.26205C8.51766 3.26205 8.667 3.41139 8.667 3.5954Z" fill="white"/>
</svg>
