<svg width="15" height="15" viewBox="0 0 15 15" fill="none" xmlns="http://www.w3.org/2000/svg">
<path d="M11.3063 5.74955L8.43997 2.88794C8.19018 2.63947 7.85228 2.5 7.50008 2.5C7.14787 2.5 6.80997 2.63947 6.56018 2.88794L3.69384 5.74955C3.56969 5.87453 3.5 6.04359 3.5 6.21981C3.5 6.39603 3.56969 6.5651 3.69384 6.69007C3.75581 6.75259 3.82953 6.80222 3.91076 6.83608C3.99199 6.86995 4.07912 6.88738 4.16712 6.88738C4.25512 6.88738 4.34224 6.86995 4.42348 6.83608C4.50471 6.80222 4.57843 6.75259 4.6404 6.69007L6.83349 4.49551V11.833C6.83349 12.0099 6.90372 12.1795 7.02873 12.3046C7.15374 12.4297 7.32329 12.5 7.50008 12.5C7.67687 12.5 7.84642 12.4297 7.97143 12.3046C8.09644 12.1795 8.16667 12.0099 8.16667 11.833V4.49551L10.3598 6.69007C10.4844 6.81568 10.6538 6.8866 10.8307 6.88722C11.0076 6.88785 11.1775 6.81813 11.303 6.69341C11.4285 6.56869 11.4994 6.39918 11.5 6.22217C11.5006 6.04516 11.4309 5.87515 11.3063 5.74955Z" fill="currentColor"/>
</svg>
