<svg width="22" height="22" viewBox="0 0 22 22" fill="none" xmlns="http://www.w3.org/2000/svg">
<rect x="0.5" y="0.5" width="21" height="21" rx="5.5" stroke="#D9D9D9"/>
<path d="M11 16H16M13.5 6.36289C13.721 6.13054 14.0208 6 14.3333 6C14.4881 6 14.6413 6.03205 14.7843 6.09431C14.9273 6.15658 15.0572 6.24784 15.1667 6.36289C15.2761 6.47794 15.3629 6.61453 15.4221 6.76485C15.4814 6.91517 15.5118 7.07629 15.5118 7.23899C15.5118 7.4017 15.4814 7.56281 15.4221 7.71314C15.3629 7.86346 15.2761 8.00004 15.1667 8.11509L8.22222 15.4159L6 16L6.55556 13.6637L13.5 6.36289Z" stroke="white" stroke-linecap="round" stroke-linejoin="round"/>
</svg>
