<svg width="16" height="16" viewBox="0 0 16 16" fill="none" xmlns="http://www.w3.org/2000/svg">
<path d="M2.55556 15H13.4444C14.3036 15 15 14.3036 15 13.4444V2.55556C15 1.69645 14.3036 1 13.4444 1H2.55556C1.69645 1 1 1.69645 1 2.55556V13.4444C1 14.3036 1.69645 15 2.55556 15ZM2.55556 15L11.1111 6.44444L15 10.3333M6.44444 5.27778C6.44444 5.92211 5.92211 6.44444 5.27778 6.44444C4.63345 6.44444 4.11111 5.92211 4.11111 5.27778C4.11111 4.63345 4.63345 4.11111 5.27778 4.11111C5.92211 4.11111 6.44444 4.63345 6.44444 5.27778Z" stroke="white" stroke-width="2" stroke-linecap="round" stroke-linejoin="round"/>
</svg>
