<svg width="22" height="22" viewBox="0 0 22 22" fill="none" xmlns="http://www.w3.org/2000/svg">
<path d="M14.888 15.011C14.071 14.912 13.318 15.499 13.22 16.322C13.103 17.301 12.967 18.062 12.86 18.585C12.377 18.68 11.723 18.789 11 18.873V4.519C11.78 4.638 12.458 4.799 12.935 4.932C13.016 5.348 13.116 5.932 13.207 6.683C13.305 7.509 14.072 8.093 14.879 7.989C15.701 7.888 16.286 7.139 16.186 6.317C15.953 4.424 15.676 3.444 15.646 3.339C15.513 2.884 15.172 2.518 14.728 2.353C14.746 2.362 12.825 1.662 11 1.506V1.062C11 0.541 10.599 0.106 10.079 0.0650001C9.56 0.0240001 9.03 0 8.5 0C5.06 0 1.687 1 1.546 1.042C1.217 1.141 0.961 1.401 0.869 1.732C0.834 1.86 0 4.933 0 11C0 17.067 0.824 20.619 0.859 20.768C0.954 21.17 1.286 21.473 1.696 21.53C1.835 21.549 4 22.001 8.5 22.001C11.179 22.001 14.516 21.337 14.476 21.301C14.987 21.17 15.391 20.78 15.54 20.276C15.556 20.223 15.926 18.964 16.199 16.68C16.298 15.857 15.711 15.11 14.888 15.011ZM5.999 11C5.999 10.172 6.671 9.5 7.499 9.5C8.327 9.5 8.999 10.172 8.999 11C8.999 11.828 8.327 12.5 7.499 12.5C6.671 12.5 5.999 11.828 5.999 11ZM21.799 12.1C21.031 13.124 20.123 14.033 19.098 14.801C18.922 14.933 18.711 15.001 18.498 15.001C17.962 15.011 17.487 14.54 17.498 14.001V13.001H14.498C13.67 13.001 12.998 12.33 12.998 11.501C12.998 10.672 13.67 10.001 14.498 10.001H17.498V9.001C17.498 8.622 17.712 8.276 18.051 8.106C18.39 7.936 18.795 7.973 19.098 8.2C20.122 8.968 21.031 9.876 21.799 10.901C22.065 11.256 22.065 11.745 21.799 12.1Z" fill="#BEC94A"/>
</svg>
