<svg width="15" height="15" viewBox="0 0 15 15" fill="none" xmlns="http://www.w3.org/2000/svg">
<path d="M12.1875 1.5H2.8125C1.26125 1.5 0 2.846 0 4.5V10.5C0 12.154 1.26188 13.5 2.8125 13.5H12.1875C13.7381 13.5 15 12.154 15 10.5V4.5C15 2.846 13.7381 1.5 12.1875 1.5ZM14.375 10.5C14.375 11.7867 13.3938 12.8333 12.1875 12.8333H2.8125C1.60625 12.8333 0.625 11.7867 0.625 10.5V4.5C0.625 3.21333 1.60625 2.16667 2.8125 2.16667H12.1875C13.3938 2.16667 14.375 3.21333 14.375 4.5V10.5ZM6.5625 5.5V7.16667H7.8125C7.985 7.16667 8.125 7.316 8.125 7.5C8.125 7.684 7.985 7.83333 7.8125 7.83333H6.5625V9.5H7.8125C7.985 9.5 8.125 9.64933 8.125 9.83333C8.125 10.0173 7.985 10.1667 7.8125 10.1667H6.5625C6.2175 10.1667 5.9375 9.868 5.9375 9.5V5.5C5.9375 5.13267 6.2175 4.83333 6.5625 4.83333H7.8125C7.985 4.83333 8.125 4.98267 8.125 5.16667C8.125 5.35067 7.985 5.5 7.8125 5.5H6.5625ZM5 5.16667V9.64C5 9.89133 4.83875 10.1027 4.60875 10.1547C4.37937 10.2053 4.15125 10.0833 4.055 9.85333L2.5 6.034V9.83333C2.5 10.0173 2.36 10.1667 2.1875 10.1667C2.015 10.1667 1.875 10.0173 1.875 9.83333V5.36067C1.875 5.10933 2.03625 4.89733 2.26625 4.84533C2.49813 4.79267 2.72375 4.91667 2.82 5.14667L4.375 8.966V5.16733C4.375 4.98333 4.515 4.834 4.6875 4.834C4.86 4.834 5 4.98333 5 5.16733V5.16667ZM13.0775 5.19067L12.7844 9.5C12.7575 9.97 12.4894 10.1667 12.1669 10.1667C11.9531 10.1667 11.7544 10.0053 11.6412 9.74L10.9137 8.03333L10.1863 9.74C10.0731 10.0053 9.87437 10.1667 9.66062 10.1667C9.33813 10.1667 9.07 9.97 9.04313 9.5L8.75 5.19067C8.73687 4.99733 8.88 4.83333 9.06187 4.83333C9.22563 4.83333 9.36187 4.968 9.37375 5.14267L9.66062 9.36267L10.5419 7.294C10.6869 6.954 11.14 6.954 11.285 7.294L12.1663 9.362L12.4531 5.142C12.465 4.968 12.6012 4.83267 12.765 4.83267C12.9462 4.83267 13.09 4.99733 13.0769 5.19L13.0775 5.19067Z" fill="white"/>
</svg>
