<svg width="31" height="31" viewBox="0 0 31 31" fill="none" xmlns="http://www.w3.org/2000/svg">
<path d="M6.07917 10.1C6.45125 8.048 8.05042 6.5 9.95833 6.5H21.0417C22.9496 6.5 24.5488 8.048 24.9208 10.1H6.07917ZM25 11.9V20C25 22.484 23.2267 24.5 21.0417 24.5H9.95833C7.77333 24.5 6 22.484 6 20V11.9H25ZM13.9167 15.5C13.9167 15.005 13.5604 14.6 13.125 14.6H9.95833C9.52292 14.6 9.16667 15.005 9.16667 15.5C9.16667 15.995 9.52292 16.4 9.95833 16.4H10.75V20C10.75 20.495 11.1063 20.9 11.5417 20.9C11.9771 20.9 12.3333 20.495 12.3333 20V16.4H13.125C13.5604 16.4 13.9167 15.995 13.9167 15.5ZM21.8333 19.1C21.8333 18.605 21.4771 18.2 21.0417 18.2H16.2917C15.8563 18.2 15.5 18.605 15.5 19.1C15.5 19.595 15.8563 20 16.2917 20H21.0417C21.4771 20 21.8333 19.595 21.8333 19.1ZM21.8333 15.5C21.8333 15.005 21.4771 14.6 21.0417 14.6H16.2917C15.8563 14.6 15.5 15.005 15.5 15.5C15.5 15.995 15.8563 16.4 16.2917 16.4H21.0417C21.4771 16.4 21.8333 15.995 21.8333 15.5Z" fill="currentColor"/>
</svg>
