<svg width="31" height="31" viewBox="0 0 31 31" fill="none" xmlns="http://www.w3.org/2000/svg">
<path d="M21.0417 6.5H9.95833C7.77333 6.5 6 8.516 6 11V20C6 22.484 7.77333 24.5 9.95833 24.5H21.0417C23.2267 24.5 25 22.484 25 20V11C25 8.516 23.2267 6.5 21.0417 6.5ZM9.95833 8.3H21.0417C22.3479 8.3 23.4167 9.515 23.4167 11H7.58333C7.58333 9.515 8.65208 8.3 9.95833 8.3ZM21.0417 22.7H9.95833C8.65208 22.7 7.58333 21.485 7.58333 20V12.8H23.4167V20C23.4167 21.485 22.3479 22.7 21.0417 22.7ZM13.9167 15.5C13.9167 15.995 13.5604 16.4 13.125 16.4H12.3333V20C12.3333 20.495 11.9771 20.9 11.5417 20.9C11.1063 20.9 10.75 20.495 10.75 20V16.4H9.95833C9.52292 16.4 9.16667 15.995 9.16667 15.5C9.16667 15.005 9.52292 14.6 9.95833 14.6H13.125C13.5604 14.6 13.9167 15.005 13.9167 15.5ZM21.8333 15.5C21.8333 15.995 21.4771 16.4 21.0417 16.4H16.2917C15.8563 16.4 15.5 15.995 15.5 15.5C15.5 15.005 15.8563 14.6 16.2917 14.6H21.0417C21.4771 14.6 21.8333 15.005 21.8333 15.5ZM21.8333 19.1C21.8333 19.595 21.4771 20 21.0417 20H16.2917C15.8563 20 15.5 19.595 15.5 19.1C15.5 18.605 15.8563 18.2 16.2917 18.2H21.0417C21.4771 18.2 21.8333 18.605 21.8333 19.1Z" fill="currentColor"/>
</svg>
