<svg width="15" height="15" viewBox="0 0 15 15" fill="none" xmlns="http://www.w3.org/2000/svg">
<g clip-path="url(#clip0_311_11770)">
<path d="M12.1043 9.12533H11.7338C11.7945 8.95524 11.8335 8.77432 11.8335 8.58366V6.95866C11.8335 6.06274 11.1044 5.33366 10.2085 5.33366H9.838C9.89866 5.16358 9.93766 4.98266 9.93766 4.79199V3.16699C9.93766 2.27108 9.20858 1.54199 8.31266 1.54199H6.68766C5.79175 1.54199 5.06266 2.27108 5.06266 3.16699V4.79199C5.06266 4.98266 5.10166 5.16358 5.16233 5.33366H4.79183C3.89591 5.33366 3.16683 6.06274 3.16683 6.95866V8.58366C3.16683 8.77432 3.20583 8.95524 3.2665 9.12533H2.896C2.00008 9.12533 1.271 9.85441 1.271 10.7503V12.3753C1.271 13.2712 2.00008 14.0003 2.896 14.0003H4.521C4.93862 14.0003 5.31616 13.8373 5.60433 13.5778C5.8925 13.8378 6.27004 14.0003 6.68766 14.0003H8.31266C8.73029 14.0003 9.10783 13.8373 9.396 13.5778C9.68416 13.8378 10.0617 14.0003 10.4793 14.0003H12.1043C13.0002 14.0003 13.7293 13.2712 13.7293 12.3753V10.7503C13.7293 9.85441 13.0002 9.12533 12.1043 9.12533ZM10.7502 6.95866V8.58366C10.7502 8.88266 10.5075 9.12533 10.2085 9.12533H8.5835C8.2845 9.12533 8.04183 8.88266 8.04183 8.58366V6.95866C8.04183 6.65966 8.2845 6.41699 8.5835 6.41699H10.2085C10.5075 6.41699 10.7502 6.65966 10.7502 6.95866ZM6.146 3.16699C6.146 2.86799 6.38866 2.62533 6.68766 2.62533H8.31266C8.61166 2.62533 8.85433 2.86799 8.85433 3.16699V4.79199C8.85433 5.09099 8.61166 5.33366 8.31266 5.33366H6.68766C6.38866 5.33366 6.146 5.09099 6.146 4.79199V3.16699ZM4.25016 6.95866C4.25016 6.65966 4.49283 6.41699 4.79183 6.41699H6.41683C6.71583 6.41699 6.9585 6.65966 6.9585 6.95866V8.58366C6.9585 8.88266 6.71583 9.12533 6.41683 9.12533H4.79183C4.49283 9.12533 4.25016 8.88266 4.25016 8.58366V6.95866ZM4.521 12.917H2.896C2.597 12.917 2.35433 12.6743 2.35433 12.3753V10.7503C2.35433 10.4513 2.597 10.2087 2.896 10.2087H4.521C4.82 10.2087 5.06266 10.4513 5.06266 10.7503V12.3753C5.06266 12.6743 4.82 12.917 4.521 12.917ZM8.31266 12.917H6.68766C6.38866 12.917 6.146 12.6743 6.146 12.3753V10.7503C6.146 10.4513 6.38866 10.2087 6.68766 10.2087H8.31266C8.61166 10.2087 8.85433 10.4513 8.85433 10.7503V12.3753C8.85433 12.6743 8.61166 12.917 8.31266 12.917ZM12.646 12.3753C12.646 12.6743 12.4033 12.917 12.1043 12.917H10.4793C10.1803 12.917 9.93766 12.6743 9.93766 12.3753V10.7503C9.93766 10.4513 10.1803 10.2087 10.4793 10.2087H12.1043C12.4033 10.2087 12.646 10.4513 12.646 10.7503V12.3753Z" fill="white"/>
</g>
<defs>
<clipPath id="clip0_311_11770">
<rect width="13" height="13" fill="white" transform="translate(1 1)"/>
</clipPath>
</defs>
</svg>
